<svg width="83" height="83" viewBox="0 0 83 83" fill="none" xmlns="http://www.w3.org/2000/svg">
<g clip-path="url(#clip0_3220_4197)">
<path d="M28.5004 0H25.6504V2.85H28.5004V0Z" fill="white"/>
<path d="M39.8988 0H37.0488V2.85H39.8988V0Z" fill="white"/>
<path d="M42.7504 0H39.9004V2.85H42.7504V0Z" fill="white"/>
<path d="M45.6 0H42.75V2.85H45.6V0Z" fill="white"/>
<path d="M57.0004 0H54.1504V2.85H57.0004V0Z" fill="white"/>
<path d="M25.6488 2.84961H22.7988V5.69961H25.6488V2.84961Z" fill="white"/>
<path d="M28.5004 2.84961H25.6504V5.69961H28.5004V2.84961Z" fill="white"/>
<path d="M34.1996 2.84961H31.3496V5.69961H34.1996V2.84961Z" fill="white"/>
<path d="M37.0492 2.84961H34.1992V5.69961H37.0492V2.84961Z" fill="white"/>
<path d="M45.6 2.84961H42.75V5.69961H45.6V2.84961Z" fill="white"/>
<path d="M48.4496 2.84961H45.5996V5.69961H48.4496V2.84961Z" fill="white"/>
<path d="M54.1488 2.84961H51.2988V5.69961H54.1488V2.84961Z" fill="white"/>
<path d="M59.85 2.84961H57V5.69961H59.85V2.84961Z" fill="white"/>
<path d="M28.5004 5.69922H25.6504V8.54922H28.5004V5.69922Z" fill="white"/>
<path d="M31.35 5.69922H28.5V8.54922H31.35V5.69922Z" fill="white"/>
<path d="M34.1996 5.69922H31.3496V8.54922H34.1996V5.69922Z" fill="white"/>
<path d="M42.7504 5.69922H39.9004V8.54922H42.7504V5.69922Z" fill="white"/>
<path d="M45.6 5.69922H42.75V8.54922H45.6V5.69922Z" fill="white"/>
<path d="M48.4496 5.69922H45.5996V8.54922H48.4496V5.69922Z" fill="white"/>
<path d="M57.0004 5.69922H54.1504V8.54922H57.0004V5.69922Z" fill="white"/>
<path d="M25.6488 8.54883H22.7988V11.3988H25.6488V8.54883Z" fill="white"/>
<path d="M28.5004 8.54883H25.6504V11.3988H28.5004V8.54883Z" fill="white"/>
<path d="M34.1996 8.54883H31.3496V11.3988H34.1996V8.54883Z" fill="white"/>
<path d="M37.0492 8.54883H34.1992V11.3988H37.0492V8.54883Z" fill="white"/>
<path d="M39.8988 8.54883H37.0488V11.3988H39.8988V8.54883Z" fill="white"/>
<path d="M42.7504 8.54883H39.9004V11.3988H42.7504V8.54883Z" fill="white"/>
<path d="M45.6 8.54883H42.75V11.3988H45.6V8.54883Z" fill="white"/>
<path d="M48.4496 8.54883H45.5996V11.3988H48.4496V8.54883Z" fill="white"/>
<path d="M54.1488 8.54883H51.2988V11.3988H54.1488V8.54883Z" fill="white"/>
<path d="M57.0004 8.54883H54.1504V11.3988H57.0004V8.54883Z" fill="white"/>
<path d="M59.85 8.54883H57V11.3988H59.85V8.54883Z" fill="white"/>
<path d="M31.35 11.4004H28.5V14.2504H31.35V11.4004Z" fill="white"/>
<path d="M37.0492 11.4004H34.1992V14.2504H37.0492V11.4004Z" fill="white"/>
<path d="M39.8988 11.4004H37.0488V14.2504H39.8988V11.4004Z" fill="white"/>
<path d="M48.4496 11.4004H45.5996V14.2504H48.4496V11.4004Z" fill="white"/>
<path d="M57.0004 11.4004H54.1504V14.2504H57.0004V11.4004Z" fill="white"/>
<path d="M25.6488 14.25H22.7988V17.1H25.6488V14.25Z" fill="white"/>
<path d="M31.35 14.25H28.5V17.1H31.35V14.25Z" fill="white"/>
<path d="M37.0492 14.25H34.1992V17.1H37.0492V14.25Z" fill="white"/>
<path d="M39.8988 14.25H37.0488V17.1H39.8988V14.25Z" fill="white"/>
<path d="M45.6 14.25H42.75V17.1H45.6V14.25Z" fill="white"/>
<path d="M54.1488 14.25H51.2988V17.1H54.1488V14.25Z" fill="white"/>
<path d="M57.0004 14.25H54.1504V17.1H57.0004V14.25Z" fill="white"/>
<path d="M25.6488 17.0996H22.7988V19.9496H25.6488V17.0996Z" fill="white"/>
<path d="M31.35 17.0996H28.5V19.9496H31.35V17.0996Z" fill="white"/>
<path d="M37.0492 17.0996H34.1992V19.9496H37.0492V17.0996Z" fill="white"/>
<path d="M42.7504 17.0996H39.9004V19.9496H42.7504V17.0996Z" fill="white"/>
<path d="M48.4496 17.0996H45.5996V19.9496H48.4496V17.0996Z" fill="white"/>
<path d="M54.1488 17.0996H51.2988V19.9496H54.1488V17.0996Z" fill="white"/>
<path d="M59.85 17.0996H57V19.9496H59.85V17.0996Z" fill="white"/>
<path d="M37.0492 19.9492H34.1992V22.7992H37.0492V19.9492Z" fill="white"/>
<path d="M39.8988 19.9492H37.0488V22.7992H39.8988V19.9492Z" fill="white"/>
<path d="M42.7504 19.9492H39.9004V22.7992H42.7504V19.9492Z" fill="white"/>
<path d="M45.6 19.9492H42.75V22.7992H45.6V19.9492Z" fill="white"/>
<path d="M48.4496 19.9492H45.5996V22.7992H48.4496V19.9492Z" fill="white"/>
<path d="M51.2992 19.9492H48.4492V22.7992H51.2992V19.9492Z" fill="white"/>
<path d="M57.0004 19.9492H54.1504V22.7992H57.0004V19.9492Z" fill="white"/>
<path d="M2.85 22.7988H0V25.6488H2.85V22.7988Z" fill="white"/>
<path d="M5.69961 22.7988H2.84961V25.6488H5.69961V22.7988Z" fill="white"/>
<path d="M8.54922 22.7988H5.69922V25.6488H8.54922V22.7988Z" fill="white"/>
<path d="M11.3988 22.7988H8.54883V25.6488H11.3988V22.7988Z" fill="white"/>
<path d="M14.2504 22.7988H11.4004V25.6488H14.2504V22.7988Z" fill="white"/>
<path d="M19.9496 22.7988H17.0996V25.6488H19.9496V22.7988Z" fill="white"/>
<path d="M22.7992 22.7988H19.9492V25.6488H22.7992V22.7988Z" fill="white"/>
<path d="M25.6488 22.7988H22.7988V25.6488H25.6488V22.7988Z" fill="white"/>
<path d="M28.5004 22.7988H25.6504V25.6488H28.5004V22.7988Z" fill="white"/>
<path d="M31.35 22.7988H28.5V25.6488H31.35V22.7988Z" fill="white"/>
<path d="M37.0492 22.7988H34.1992V25.6488H37.0492V22.7988Z" fill="white"/>
<path d="M39.8988 22.7988H37.0488V25.6488H39.8988V22.7988Z" fill="white"/>
<path d="M42.7504 22.7988H39.9004V25.6488H42.7504V22.7988Z" fill="white"/>
<path d="M45.6 22.7988H42.75V25.6488H45.6V22.7988Z" fill="white"/>
<path d="M48.4496 22.7988H45.5996V25.6488H48.4496V22.7988Z" fill="white"/>
<path d="M51.2992 22.7988H48.4492V25.6488H51.2992V22.7988Z" fill="white"/>
<path d="M57.0004 22.7988H54.1504V25.6488H57.0004V22.7988Z" fill="white"/>
<path d="M59.85 22.7988H57V25.6488H59.85V22.7988Z" fill="white"/>
<path d="M62.6996 22.7988H59.8496V25.6488H62.6996V22.7988Z" fill="white"/>
<path d="M68.3988 22.7988H65.5488V25.6488H68.3988V22.7988Z" fill="white"/>
<path d="M74.1 22.7988H71.25V25.6488H74.1V22.7988Z" fill="white"/>
<path d="M79.7992 22.7988H76.9492V25.6488H79.7992V22.7988Z" fill="white"/>
<path d="M5.69961 25.6504H2.84961V28.5004H5.69961V25.6504Z" fill="white"/>
<path d="M11.3988 25.6504H8.54883V28.5004H11.3988V25.6504Z" fill="white"/>
<path d="M14.2504 25.6504H11.4004V28.5004H14.2504V25.6504Z" fill="white"/>
<path d="M17.1 25.6504H14.25V28.5004H17.1V25.6504Z" fill="white"/>
<path d="M22.7992 25.6504H19.9492V28.5004H22.7992V25.6504Z" fill="white"/>
<path d="M28.5004 25.6504H25.6504V28.5004H28.5004V25.6504Z" fill="white"/>
<path d="M48.4496 25.6504H45.5996V28.5004H48.4496V25.6504Z" fill="white"/>
<path d="M51.2992 25.6504H48.4492V28.5004H51.2992V25.6504Z" fill="white"/>
<path d="M54.1488 25.6504H51.2988V28.5004H54.1488V25.6504Z" fill="white"/>
<path d="M59.85 25.6504H57V28.5004H59.85V25.6504Z" fill="white"/>
<path d="M62.6996 25.6504H59.8496V28.5004H62.6996V25.6504Z" fill="white"/>
<path d="M71.2504 25.6504H68.4004V28.5004H71.2504V25.6504Z" fill="white"/>
<path d="M74.1 25.6504H71.25V28.5004H74.1V25.6504Z" fill="white"/>
<path d="M76.9496 25.6504H74.0996V28.5004H76.9496V25.6504Z" fill="white"/>
<path d="M79.7992 25.6504H76.9492V28.5004H79.7992V25.6504Z" fill="white"/>
<path d="M82.6488 25.6504H79.7988V28.5004H82.6488V25.6504Z" fill="white"/>
<path d="M2.85 28.5H0V31.35H2.85V28.5Z" fill="white"/>
<path d="M5.69961 28.5H2.84961V31.35H5.69961V28.5Z" fill="white"/>
<path d="M14.2504 28.5H11.4004V31.35H14.2504V28.5Z" fill="white"/>
<path d="M17.1 28.5H14.25V31.35H17.1V28.5Z" fill="white"/>
<path d="M19.9496 28.5H17.0996V31.35H19.9496V28.5Z" fill="white"/>
<path d="M22.7992 28.5H19.9492V31.35H22.7992V28.5Z" fill="white"/>
<path d="M25.6488 28.5H22.7988V31.35H25.6488V28.5Z" fill="white"/>
<path d="M28.5004 28.5H25.6504V31.35H28.5004V28.5Z" fill="white"/>
<path d="M34.1996 28.5H31.3496V31.35H34.1996V28.5Z" fill="white"/>
<path d="M37.0492 28.5H34.1992V31.35H37.0492V28.5Z" fill="white"/>
<path d="M39.8988 28.5H37.0488V31.35H39.8988V28.5Z" fill="white"/>
<path d="M45.6 28.5H42.75V31.35H45.6V28.5Z" fill="white"/>
<path d="M48.4496 28.5H45.5996V31.35H48.4496V28.5Z" fill="white"/>
<path d="M51.2992 28.5H48.4492V31.35H51.2992V28.5Z" fill="white"/>
<path d="M62.6996 28.5H59.8496V31.35H62.6996V28.5Z" fill="white"/>
<path d="M68.3988 28.5H65.5488V31.35H68.3988V28.5Z" fill="white"/>
<path d="M71.2504 28.5H68.4004V31.35H71.2504V28.5Z" fill="white"/>
<path d="M82.6488 28.5H79.7988V31.35H82.6488V28.5Z" fill="white"/>
<path d="M5.69961 31.3496H2.84961V34.1996H5.69961V31.3496Z" fill="white"/>
<path d="M8.54922 31.3496H5.69922V34.1996H8.54922V31.3496Z" fill="white"/>
<path d="M14.2504 31.3496H11.4004V34.1996H14.2504V31.3496Z" fill="white"/>
<path d="M17.1 31.3496H14.25V34.1996H17.1V31.3496Z" fill="white"/>
<path d="M28.5004 31.3496H25.6504V34.1996H28.5004V31.3496Z" fill="white"/>
<path d="M31.35 31.3496H28.5V34.1996H31.35V31.3496Z" fill="white"/>
<path d="M34.1996 31.3496H31.3496V34.1996H34.1996V31.3496Z" fill="white"/>
<path d="M37.0492 31.3496H34.1992V34.1996H37.0492V31.3496Z" fill="white"/>
<path d="M39.8988 31.3496H37.0488V34.1996H39.8988V31.3496Z" fill="white"/>
<path d="M45.6 31.3496H42.75V34.1996H45.6V31.3496Z" fill="white"/>
<path d="M51.2992 31.3496H48.4492V34.1996H51.2992V31.3496Z" fill="white"/>
<path d="M54.1488 31.3496H51.2988V34.1996H54.1488V31.3496Z" fill="white"/>
<path d="M57.0004 31.3496H54.1504V34.1996H57.0004V31.3496Z" fill="white"/>
<path d="M62.6996 31.3496H59.8496V34.1996H62.6996V31.3496Z" fill="white"/>
<path d="M65.5492 31.3496H62.6992V34.1996H65.5492V31.3496Z" fill="white"/>
<path d="M71.2504 31.3496H68.4004V34.1996H71.2504V31.3496Z" fill="white"/>
<path d="M76.9496 31.3496H74.0996V34.1996H76.9496V31.3496Z" fill="white"/>
<path d="M79.7992 31.3496H76.9492V34.1996H79.7992V31.3496Z" fill="white"/>
<path d="M82.6488 31.3496H79.7988V34.1996H82.6488V31.3496Z" fill="white"/>
<path d="M2.85 34.1992H0V37.0492H2.85V34.1992Z" fill="white"/>
<path d="M5.69961 34.1992H2.84961V37.0492H5.69961V34.1992Z" fill="white"/>
<path d="M11.3988 34.1992H8.54883V37.0492H11.3988V34.1992Z" fill="white"/>
<path d="M14.2504 34.1992H11.4004V37.0492H14.2504V34.1992Z" fill="white"/>
<path d="M19.9496 34.1992H17.0996V37.0492H19.9496V34.1992Z" fill="white"/>
<path d="M22.7992 34.1992H19.9492V37.0492H22.7992V34.1992Z" fill="white"/>
<path d="M28.5004 34.1992H25.6504V37.0492H28.5004V34.1992Z" fill="white"/>
<path d="M34.1996 34.1992H31.3496V37.0492H34.1996V34.1992Z" fill="white"/>
<path d="M51.2992 34.1992H48.4492V37.0492H51.2992V34.1992Z" fill="white"/>
<path d="M54.1488 34.1992H51.2988V37.0492H54.1488V34.1992Z" fill="white"/>
<path d="M57.0004 34.1992H54.1504V37.0492H57.0004V34.1992Z" fill="white"/>
<path d="M62.6996 34.1992H59.8496V37.0492H62.6996V34.1992Z" fill="white"/>
<path d="M65.5492 34.1992H62.6992V37.0492H65.5492V34.1992Z" fill="white"/>
<path d="M68.3988 34.1992H65.5488V37.0492H68.3988V34.1992Z" fill="white"/>
<path d="M74.1 34.1992H71.25V37.0492H74.1V34.1992Z" fill="white"/>
<path d="M79.7992 34.1992H76.9492V37.0492H79.7992V34.1992Z" fill="white"/>
<path d="M22.7992 37.0488H19.9492V39.8988H22.7992V37.0488Z" fill="white"/>
<path d="M25.6488 37.0488H22.7988V39.8988H25.6488V37.0488Z" fill="white"/>
<path d="M28.5004 37.0488H25.6504V39.8988H28.5004V37.0488Z" fill="white"/>
<path d="M31.35 37.0488H28.5V39.8988H31.35V37.0488Z" fill="white"/>
<path d="M34.1996 37.0488H31.3496V39.8988H34.1996V37.0488Z" fill="white"/>
<path d="M37.0492 37.0488H34.1992V39.8988H37.0492V37.0488Z" fill="white"/>
<path d="M39.8988 37.0488H37.0488V39.8988H39.8988V37.0488Z" fill="white"/>
<path d="M42.7504 37.0488H39.9004V39.8988H42.7504V37.0488Z" fill="white"/>
<path d="M54.1488 37.0488H51.2988V39.8988H54.1488V37.0488Z" fill="white"/>
<path d="M59.85 37.0488H57V39.8988H59.85V37.0488Z" fill="white"/>
<path d="M62.6996 37.0488H59.8496V39.8988H62.6996V37.0488Z" fill="white"/>
<path d="M65.5492 37.0488H62.6992V39.8988H65.5492V37.0488Z" fill="white"/>
<path d="M71.2504 37.0488H68.4004V39.8988H71.2504V37.0488Z" fill="white"/>
<path d="M79.7992 37.0488H76.9492V39.8988H79.7992V37.0488Z" fill="white"/>
<path d="M2.85 39.9004H0V42.7504H2.85V39.9004Z" fill="white"/>
<path d="M5.69961 39.9004H2.84961V42.7504H5.69961V39.9004Z" fill="white"/>
<path d="M14.2504 39.9004H11.4004V42.7504H14.2504V39.9004Z" fill="white"/>
<path d="M19.9496 39.9004H17.0996V42.7504H19.9496V39.9004Z" fill="white"/>
<path d="M22.7992 39.9004H19.9492V42.7504H22.7992V39.9004Z" fill="white"/>
<path d="M34.1996 39.9004H31.3496V42.7504H34.1996V39.9004Z" fill="white"/>
<path d="M37.0492 39.9004H34.1992V42.7504H37.0492V39.9004Z" fill="white"/>
<path d="M45.6 39.9004H42.75V42.7504H45.6V39.9004Z" fill="white"/>
<path d="M57.0004 39.9004H54.1504V42.7504H57.0004V39.9004Z" fill="white"/>
<path d="M59.85 39.9004H57V42.7504H59.85V39.9004Z" fill="white"/>
<path d="M62.6996 39.9004H59.8496V42.7504H62.6996V39.9004Z" fill="white"/>
<path d="M71.2504 39.9004H68.4004V42.7504H71.2504V39.9004Z" fill="white"/>
<path d="M74.1 39.9004H71.25V42.7504H74.1V39.9004Z" fill="white"/>
<path d="M76.9496 39.9004H74.0996V42.7504H76.9496V39.9004Z" fill="white"/>
<path d="M82.6488 39.9004H79.7988V42.7504H82.6488V39.9004Z" fill="white"/>
<path d="M2.85 42.75H0V45.6H2.85V42.75Z" fill="white"/>
<path d="M14.2504 42.75H11.4004V45.6H14.2504V42.75Z" fill="white"/>
<path d="M22.7992 42.75H19.9492V45.6H22.7992V42.75Z" fill="white"/>
<path d="M28.5004 42.75H25.6504V45.6H28.5004V42.75Z" fill="white"/>
<path d="M34.1996 42.75H31.3496V45.6H34.1996V42.75Z" fill="white"/>
<path d="M39.8988 42.75H37.0488V45.6H39.8988V42.75Z" fill="white"/>
<path d="M51.2992 42.75H48.4492V45.6H51.2992V42.75Z" fill="white"/>
<path d="M59.85 42.75H57V45.6H59.85V42.75Z" fill="white"/>
<path d="M65.5492 42.75H62.6992V45.6H65.5492V42.75Z" fill="white"/>
<path d="M68.3988 42.75H65.5488V45.6H68.3988V42.75Z" fill="white"/>
<path d="M79.7992 42.75H76.9492V45.6H79.7992V42.75Z" fill="white"/>
<path d="M82.6488 42.75H79.7988V45.6H82.6488V42.75Z" fill="white"/>
<path d="M5.69961 45.5996H2.84961V48.4496H5.69961V45.5996Z" fill="white"/>
<path d="M8.54922 45.5996H5.69922V48.4496H8.54922V45.5996Z" fill="white"/>
<path d="M14.2504 45.5996H11.4004V48.4496H14.2504V45.5996Z" fill="white"/>
<path d="M17.1 45.5996H14.25V48.4496H17.1V45.5996Z" fill="white"/>
<path d="M19.9496 45.5996H17.0996V48.4496H19.9496V45.5996Z" fill="white"/>
<path d="M25.6488 45.5996H22.7988V48.4496H25.6488V45.5996Z" fill="white"/>
<path d="M28.5004 45.5996H25.6504V48.4496H28.5004V45.5996Z" fill="white"/>
<path d="M42.7504 45.5996H39.9004V48.4496H42.7504V45.5996Z" fill="white"/>
<path d="M45.6 45.5996H42.75V48.4496H45.6V45.5996Z" fill="white"/>
<path d="M48.4496 45.5996H45.5996V48.4496H48.4496V45.5996Z" fill="white"/>
<path d="M51.2992 45.5996H48.4492V48.4496H51.2992V45.5996Z" fill="white"/>
<path d="M54.1488 45.5996H51.2988V48.4496H54.1488V45.5996Z" fill="white"/>
<path d="M57.0004 45.5996H54.1504V48.4496H57.0004V45.5996Z" fill="white"/>
<path d="M59.85 45.5996H57V48.4496H59.85V45.5996Z" fill="white"/>
<path d="M62.6996 45.5996H59.8496V48.4496H62.6996V45.5996Z" fill="white"/>
<path d="M68.3988 45.5996H65.5488V48.4496H68.3988V45.5996Z" fill="white"/>
<path d="M74.1 45.5996H71.25V48.4496H74.1V45.5996Z" fill="white"/>
<path d="M79.7992 45.5996H76.9492V48.4496H79.7992V45.5996Z" fill="white"/>
<path d="M82.6488 45.5996H79.7988V48.4496H82.6488V45.5996Z" fill="white"/>
<path d="M2.85 48.4492H0V51.2992H2.85V48.4492Z" fill="white"/>
<path d="M22.7992 48.4492H19.9492V51.2992H22.7992V48.4492Z" fill="white"/>
<path d="M25.6488 48.4492H22.7988V51.2992H25.6488V48.4492Z" fill="white"/>
<path d="M45.6 48.4492H42.75V51.2992H45.6V48.4492Z" fill="white"/>
<path d="M48.4496 48.4492H45.5996V51.2992H48.4496V48.4492Z" fill="white"/>
<path d="M51.2992 48.4492H48.4492V51.2992H51.2992V48.4492Z" fill="white"/>
<path d="M54.1488 48.4492H51.2988V51.2992H54.1488V48.4492Z" fill="white"/>
<path d="M59.85 48.4492H57V51.2992H59.85V48.4492Z" fill="white"/>
<path d="M65.5492 48.4492H62.6992V51.2992H65.5492V48.4492Z" fill="white"/>
<path d="M79.7992 48.4492H76.9492V51.2992H79.7992V48.4492Z" fill="white"/>
<path d="M2.85 51.2988H0V54.1488H2.85V51.2988Z" fill="white"/>
<path d="M8.54922 51.2988H5.69922V54.1488H8.54922V51.2988Z" fill="white"/>
<path d="M11.3988 51.2988H8.54883V54.1488H11.3988V51.2988Z" fill="white"/>
<path d="M14.2504 51.2988H11.4004V54.1488H14.2504V51.2988Z" fill="white"/>
<path d="M17.1 51.2988H14.25V54.1488H17.1V51.2988Z" fill="white"/>
<path d="M19.9496 51.2988H17.0996V54.1488H19.9496V51.2988Z" fill="white"/>
<path d="M22.7992 51.2988H19.9492V54.1488H22.7992V51.2988Z" fill="white"/>
<path d="M28.5004 51.2988H25.6504V54.1488H28.5004V51.2988Z" fill="white"/>
<path d="M31.35 51.2988H28.5V54.1488H31.35V51.2988Z" fill="white"/>
<path d="M34.1996 51.2988H31.3496V54.1488H34.1996V51.2988Z" fill="white"/>
<path d="M37.0492 51.2988H34.1992V54.1488H37.0492V51.2988Z" fill="white"/>
<path d="M42.7504 51.2988H39.9004V54.1488H42.7504V51.2988Z" fill="white"/>
<path d="M71.2504 51.2988H68.4004V54.1488H71.2504V51.2988Z" fill="white"/>
<path d="M74.1 51.2988H71.25V54.1488H74.1V51.2988Z" fill="white"/>
<path d="M79.7992 51.2988H76.9492V54.1488H79.7992V51.2988Z" fill="white"/>
<path d="M82.6488 51.2988H79.7988V54.1488H82.6488V51.2988Z" fill="white"/>
<path d="M2.85 54.1504H0V57.0004H2.85V54.1504Z" fill="white"/>
<path d="M11.3988 54.1504H8.54883V57.0004H11.3988V54.1504Z" fill="white"/>
<path d="M17.1 54.1504H14.25V57.0004H17.1V54.1504Z" fill="white"/>
<path d="M22.7992 54.1504H19.9492V57.0004H22.7992V54.1504Z" fill="white"/>
<path d="M31.35 54.1504H28.5V57.0004H31.35V54.1504Z" fill="white"/>
<path d="M34.1996 54.1504H31.3496V57.0004H34.1996V54.1504Z" fill="white"/>
<path d="M37.0492 54.1504H34.1992V57.0004H37.0492V54.1504Z" fill="white"/>
<path d="M39.8988 54.1504H37.0488V57.0004H39.8988V54.1504Z" fill="white"/>
<path d="M42.7504 54.1504H39.9004V57.0004H42.7504V54.1504Z" fill="white"/>
<path d="M48.4496 54.1504H45.5996V57.0004H48.4496V54.1504Z" fill="white"/>
<path d="M51.2992 54.1504H48.4492V57.0004H51.2992V54.1504Z" fill="white"/>
<path d="M57.0004 54.1504H54.1504V57.0004H57.0004V54.1504Z" fill="white"/>
<path d="M65.5492 54.1504H62.6992V57.0004H65.5492V54.1504Z" fill="white"/>
<path d="M79.7992 54.1504H76.9492V57.0004H79.7992V54.1504Z" fill="white"/>
<path d="M2.85 57H0V59.85H2.85V57Z" fill="white"/>
<path d="M8.54922 57H5.69922V59.85H8.54922V57Z" fill="white"/>
<path d="M11.3988 57H8.54883V59.85H11.3988V57Z" fill="white"/>
<path d="M19.9496 57H17.0996V59.85H19.9496V57Z" fill="white"/>
<path d="M22.7992 57H19.9492V59.85H22.7992V57Z" fill="white"/>
<path d="M25.6488 57H22.7988V59.85H25.6488V57Z" fill="white"/>
<path d="M28.5004 57H25.6504V59.85H28.5004V57Z" fill="white"/>
<path d="M48.4496 57H45.5996V59.85H48.4496V57Z" fill="white"/>
<path d="M59.85 57H57V59.85H59.85V57Z" fill="white"/>
<path d="M62.6996 57H59.8496V59.85H62.6996V57Z" fill="white"/>
<path d="M65.5492 57H62.6992V59.85H65.5492V57Z" fill="white"/>
<path d="M68.3988 57H65.5488V59.85H68.3988V57Z" fill="white"/>
<path d="M71.2504 57H68.4004V59.85H71.2504V57Z" fill="white"/>
<path d="M74.1 57H71.25V59.85H74.1V57Z" fill="white"/>
<path d="M82.6488 57H79.7988V59.85H82.6488V57Z" fill="white"/>
<path d="M25.6488 59.8496H22.7988V62.6996H25.6488V59.8496Z" fill="white"/>
<path d="M28.5004 59.8496H25.6504V62.6996H28.5004V59.8496Z" fill="white"/>
<path d="M34.1996 59.8496H31.3496V62.6996H34.1996V59.8496Z" fill="white"/>
<path d="M42.7504 59.8496H39.9004V62.6996H42.7504V59.8496Z" fill="white"/>
<path d="M48.4496 59.8496H45.5996V62.6996H48.4496V59.8496Z" fill="white"/>
<path d="M51.2992 59.8496H48.4492V62.6996H51.2992V59.8496Z" fill="white"/>
<path d="M54.1488 59.8496H51.2988V62.6996H54.1488V59.8496Z" fill="white"/>
<path d="M57.0004 59.8496H54.1504V62.6996H57.0004V59.8496Z" fill="white"/>
<path d="M59.85 59.8496H57V62.6996H59.85V59.8496Z" fill="white"/>
<path d="M71.2504 59.8496H68.4004V62.6996H71.2504V59.8496Z" fill="white"/>
<path d="M74.1 59.8496H71.25V62.6996H74.1V59.8496Z" fill="white"/>
<path d="M82.6488 59.8496H79.7988V62.6996H82.6488V59.8496Z" fill="white"/>
<path d="M25.6488 62.6992H22.7988V65.5492H25.6488V62.6992Z" fill="white"/>
<path d="M37.0492 62.6992H34.1992V65.5492H37.0492V62.6992Z" fill="white"/>
<path d="M39.8988 62.6992H37.0488V65.5492H39.8988V62.6992Z" fill="white"/>
<path d="M45.6 62.6992H42.75V65.5492H45.6V62.6992Z" fill="white"/>
<path d="M48.4496 62.6992H45.5996V65.5492H48.4496V62.6992Z" fill="white"/>
<path d="M54.1488 62.6992H51.2988V65.5492H54.1488V62.6992Z" fill="white"/>
<path d="M57.0004 62.6992H54.1504V65.5492H57.0004V62.6992Z" fill="white"/>
<path d="M59.85 62.6992H57V65.5492H59.85V62.6992Z" fill="white"/>
<path d="M65.5492 62.6992H62.6992V65.5492H65.5492V62.6992Z" fill="white"/>
<path d="M71.2504 62.6992H68.4004V65.5492H71.2504V62.6992Z" fill="white"/>
<path d="M76.9496 62.6992H74.0996V65.5492H76.9496V62.6992Z" fill="white"/>
<path d="M79.7992 62.6992H76.9492V65.5492H79.7992V62.6992Z" fill="white"/>
<path d="M28.5004 65.5488H25.6504V68.3988H28.5004V65.5488Z" fill="white"/>
<path d="M39.8988 65.5488H37.0488V68.3988H39.8988V65.5488Z" fill="white"/>
<path d="M57.0004 65.5488H54.1504V68.3988H57.0004V65.5488Z" fill="white"/>
<path d="M59.85 65.5488H57V68.3988H59.85V65.5488Z" fill="white"/>
<path d="M71.2504 65.5488H68.4004V68.3988H71.2504V65.5488Z" fill="white"/>
<path d="M74.1 65.5488H71.25V68.3988H74.1V65.5488Z" fill="white"/>
<path d="M82.6488 65.5488H79.7988V68.3988H82.6488V65.5488Z" fill="white"/>
<path d="M25.6488 68.4004H22.7988V71.2504H25.6488V68.4004Z" fill="white"/>
<path d="M34.1996 68.4004H31.3496V71.2504H34.1996V68.4004Z" fill="white"/>
<path d="M39.8988 68.4004H37.0488V71.2504H39.8988V68.4004Z" fill="white"/>
<path d="M42.7504 68.4004H39.9004V71.2504H42.7504V68.4004Z" fill="white"/>
<path d="M45.6 68.4004H42.75V71.2504H45.6V68.4004Z" fill="white"/>
<path d="M48.4496 68.4004H45.5996V71.2504H48.4496V68.4004Z" fill="white"/>
<path d="M51.2992 68.4004H48.4492V71.2504H51.2992V68.4004Z" fill="white"/>
<path d="M54.1488 68.4004H51.2988V71.2504H54.1488V68.4004Z" fill="white"/>
<path d="M57.0004 68.4004H54.1504V71.2504H57.0004V68.4004Z" fill="white"/>
<path d="M59.85 68.4004H57V71.2504H59.85V68.4004Z" fill="white"/>
<path d="M62.6996 68.4004H59.8496V71.2504H62.6996V68.4004Z" fill="white"/>
<path d="M65.5492 68.4004H62.6992V71.2504H65.5492V68.4004Z" fill="white"/>
<path d="M68.3988 68.4004H65.5488V71.2504H68.3988V68.4004Z" fill="white"/>
<path d="M71.2504 68.4004H68.4004V71.2504H71.2504V68.4004Z" fill="white"/>
<path d="M74.1 68.4004H71.25V71.2504H74.1V68.4004Z" fill="white"/>
<path d="M79.7992 68.4004H76.9492V71.2504H79.7992V68.4004Z" fill="white"/>
<path d="M25.6488 71.25H22.7988V74.1H25.6488V71.25Z" fill="white"/>
<path d="M28.5004 71.25H25.6504V74.1H28.5004V71.25Z" fill="white"/>
<path d="M34.1996 71.25H31.3496V74.1H34.1996V71.25Z" fill="white"/>
<path d="M37.0492 71.25H34.1992V74.1H37.0492V71.25Z" fill="white"/>
<path d="M39.8988 71.25H37.0488V74.1H39.8988V71.25Z" fill="white"/>
<path d="M42.7504 71.25H39.9004V74.1H42.7504V71.25Z" fill="white"/>
<path d="M65.5492 71.25H62.6992V74.1H65.5492V71.25Z" fill="white"/>
<path d="M68.3988 71.25H65.5488V74.1H68.3988V71.25Z" fill="white"/>
<path d="M71.2504 71.25H68.4004V74.1H71.2504V71.25Z" fill="white"/>
<path d="M74.1 71.25H71.25V74.1H74.1V71.25Z" fill="white"/>
<path d="M76.9496 71.25H74.0996V74.1H76.9496V71.25Z" fill="white"/>
<path d="M79.7992 71.25H76.9492V74.1H79.7992V71.25Z" fill="white"/>
<path d="M82.6488 71.25H79.7988V74.1H82.6488V71.25Z" fill="white"/>
<path d="M25.6488 74.0996H22.7988V76.9496H25.6488V74.0996Z" fill="white"/>
<path d="M28.5004 74.0996H25.6504V76.9496H28.5004V74.0996Z" fill="white"/>
<path d="M31.35 74.0996H28.5V76.9496H31.35V74.0996Z" fill="white"/>
<path d="M39.8988 74.0996H37.0488V76.9496H39.8988V74.0996Z" fill="white"/>
<path d="M42.7504 74.0996H39.9004V76.9496H42.7504V74.0996Z" fill="white"/>
<path d="M45.6 74.0996H42.75V76.9496H45.6V74.0996Z" fill="white"/>
<path d="M54.1488 74.0996H51.2988V76.9496H54.1488V74.0996Z" fill="white"/>
<path d="M62.6996 74.0996H59.8496V76.9496H62.6996V74.0996Z" fill="white"/>
<path d="M65.5492 74.0996H62.6992V76.9496H65.5492V74.0996Z" fill="white"/>
<path d="M68.3988 74.0996H65.5488V76.9496H68.3988V74.0996Z" fill="white"/>
<path d="M71.2504 74.0996H68.4004V76.9496H71.2504V74.0996Z" fill="white"/>
<path d="M74.1 74.0996H71.25V76.9496H74.1V74.0996Z" fill="white"/>
<path d="M79.7992 74.0996H76.9492V76.9496H79.7992V74.0996Z" fill="white"/>
<path d="M25.6488 76.9492H22.7988V79.7992H25.6488V76.9492Z" fill="white"/>
<path d="M37.0492 76.9492H34.1992V79.7992H37.0492V76.9492Z" fill="white"/>
<path d="M39.8988 76.9492H37.0488V79.7992H39.8988V76.9492Z" fill="white"/>
<path d="M57.0004 76.9492H54.1504V79.7992H57.0004V76.9492Z" fill="white"/>
<path d="M65.5492 76.9492H62.6992V79.7992H65.5492V76.9492Z" fill="white"/>
<path d="M68.3988 76.9492H65.5488V79.7992H68.3988V76.9492Z" fill="white"/>
<path d="M74.1 76.9492H71.25V79.7992H74.1V76.9492Z" fill="white"/>
<path d="M76.9496 76.9492H74.0996V79.7992H76.9496V76.9492Z" fill="white"/>
<path d="M79.7992 76.9492H76.9492V79.7992H79.7992V76.9492Z" fill="white"/>
<path d="M82.6488 76.9492H79.7988V79.7992H82.6488V76.9492Z" fill="white"/>
<path d="M25.6488 79.7988H22.7988V82.6488H25.6488V79.7988Z" fill="white"/>
<path d="M31.35 79.7988H28.5V82.6488H31.35V79.7988Z" fill="white"/>
<path d="M34.1996 79.7988H31.3496V82.6488H34.1996V79.7988Z" fill="white"/>
<path d="M37.0492 79.7988H34.1992V82.6488H37.0492V79.7988Z" fill="white"/>
<path d="M39.8988 79.7988H37.0488V82.6488H39.8988V79.7988Z" fill="white"/>
<path d="M42.7504 79.7988H39.9004V82.6488H42.7504V79.7988Z" fill="white"/>
<path d="M51.2992 79.7988H48.4492V82.6488H51.2992V79.7988Z" fill="white"/>
<path d="M54.1488 79.7988H51.2988V82.6488H54.1488V79.7988Z" fill="white"/>
<path d="M62.6996 79.7988H59.8496V82.6488H62.6996V79.7988Z" fill="white"/>
<path d="M71.2504 79.7988H68.4004V82.6488H71.2504V79.7988Z" fill="white"/>
<path d="M74.1 79.7988H71.25V82.6488H74.1V79.7988Z" fill="white"/>
<path d="M79.7992 79.7988H76.9492V82.6488H79.7992V79.7988Z" fill="white"/>
<g clip-path="url(#clip1_3220_4197)">
<path d="M17.1293 0H14.2793H11.4293H11.4293H8.5793H5.72931H2.87932H0.0292969V2.84999V5.69998V8.54998V11.4V14.25V17.1V19.9499H2.87932H5.72931H8.5793H11.4293H11.4293H14.2793H17.1293H19.9793V17.1V14.25V11.4V8.54998V5.69998V2.84999V0H17.1293ZM17.1293 5.69998V8.54998V11.4V14.25V17.1H14.2793H11.4293H11.4293H8.5793H5.72931H2.87932V14.25V11.4V8.54998V5.69998V2.84999H5.72931H8.5793H11.4293H11.4293H14.2793H17.1293V5.69998Z" fill="white"/>
</g>
<path d="M11.3992 5.69922H11.3991H8.54921H5.69922V8.54918V11.3992V14.2492H8.54921H11.3991H11.3992H14.2491V11.3992V8.54918V5.69922H11.3992Z" fill="white"/>
<g clip-path="url(#clip2_3220_4197)">
<path d="M79.8285 0H76.9785H74.1285H74.1285H71.2785H68.4285H65.5785H62.7285V2.84999V5.69998V8.54998V11.4V14.25V17.1V19.9499H65.5785H68.4285H71.2785H74.1285H74.1285H76.9785H79.8285H82.6785V17.1V14.25V11.4V8.54998V5.69998V2.84999V0H79.8285ZM79.8285 5.69998V8.54998V11.4V14.25V17.1H76.9785H74.1285H74.1285H71.2785H68.4285H65.5785V14.25V11.4V8.54998V5.69998V2.84999H68.4285H71.2785H74.1285H74.1285H76.9785H79.8285V5.69998Z" fill="white"/>
</g>
<path d="M74.0984 5.69922H74.0984H71.2484H68.3984V8.54918V11.3992V14.2492H71.2484H74.0984H74.0984H76.9484V11.3992V8.54918V5.69922H74.0984Z" fill="white"/>
<g clip-path="url(#clip3_3220_4197)">
<path d="M17.1293 62.6992H14.2793H11.4293H11.4293H8.5793H5.72931H2.87932H0.0292969V65.5492V68.3992V71.2492V74.0992V76.9492V79.7992V82.6492H2.87932H5.72931H8.5793H11.4293H11.4293H14.2793H17.1293H19.9793V79.7992V76.9492V74.0992V71.2492V68.3992V65.5492V62.6992H17.1293ZM17.1293 68.3992V71.2492V74.0992V76.9492V79.7992H14.2793H11.4293H11.4293H8.5793H5.72931H2.87932V76.9492V74.0992V71.2492V68.3992V65.5492H5.72931H8.5793H11.4293H11.4293H14.2793H17.1293V68.3992Z" fill="white"/>
</g>
<path d="M11.3992 68.3984H11.3991H8.54921H5.69922V71.2484V74.0984V76.9484H8.54921H11.3991H11.3992H14.2491V74.0984V71.2484V68.3984H11.3992Z" fill="white"/>
</g>
<defs>
<clipPath id="clip0_3220_4197">
<rect width="83" height="83" fill="white"/>
</clipPath>
<clipPath id="clip1_3220_4197">
<rect width="19.95" height="19.95" fill="white"/>
</clipPath>
<clipPath id="clip2_3220_4197">
<rect width="19.95" height="19.95" fill="white" transform="translate(62.6992)"/>
</clipPath>
<clipPath id="clip3_3220_4197">
<rect width="19.95" height="19.95" fill="white" transform="translate(0 62.6992)"/>
</clipPath>
</defs>
</svg>
