<svg width="816" height="148" viewBox="0 0 816 148" fill="none" xmlns="http://www.w3.org/2000/svg">
<path fill-rule="evenodd" clip-rule="evenodd" d="M90.8852 112.864L72.9199 121.749V55.0026L90.8852 46.1169V112.864ZM115.277 100.801L97.3095 109.686V42.9371L115.263 34.0586H115.277V100.801ZM121.701 97.6231V30.874L139.667 21.9883V88.7375L121.701 97.6231Z" fill="white"/>
<path fill-rule="evenodd" clip-rule="evenodd" d="M66.6653 103.743V121.708L0 88.7373V70.7697L66.6653 103.743ZM66.6653 79.3512V97.3165L0 64.3455V46.3802L66.6653 79.3512ZM66.6653 54.9593V72.9271L0 39.9536V21.9883L66.6653 54.9593Z" fill="#FF9500"/>
<path d="M182.312 0.859375V103.877H235.069C259.757 103.877 275.63 92.7068 275.63 75.072C275.63 61.9937 267.547 51.7073 254.909 49.0615C265.636 45.9751 272.395 37.3048 272.395 26.8723C272.395 10.9998 256.966 0.859375 232.866 0.859375H182.312ZM212.734 23.7859H231.25C237.274 23.7859 241.095 27.0184 241.095 32.3101C241.095 37.7454 237.274 41.2725 231.25 41.2725H212.734V23.7859ZM212.734 62.1397H231.25C239.036 62.1397 243.887 65.6668 243.887 71.2529C243.887 77.2773 239.036 81.0988 231.25 81.0988H212.734V62.1397Z" fill="#FF9500"/>
<path d="M324.551 0.859375H293.984V103.874H324.551V0.859375Z" fill="#FF9500"/>
<path d="M422.278 25.2561V0.859375H343.07V25.2561H367.244V103.877H397.958V25.2561H422.278Z" fill="#FF9500"/>
<path d="M488.52 0C456.631 0 433.118 22.1915 433.118 52.1696C433.118 82.5883 456.191 105.22 487.493 105.22C503.069 105.22 519.968 97.4312 531.138 85.3801L513.503 66.572C506.45 73.7721 496.898 78.4747 488.963 78.4747C475.001 78.4747 464.42 67.0126 464.42 51.8751C464.42 36.74 475.001 25.424 488.963 25.424C497.485 25.424 507.039 30.8617 513.503 39.0914L531.138 18.224C520.704 7.054 504.098 0 488.52 0Z" fill="#FF9500"/>
<path d="M594.906 0C562.576 0 538.769 22.043 538.769 52.3156C538.769 82.7367 562.576 105.22 594.906 105.22C627.235 105.22 651.043 82.5882 651.043 52.3156C651.043 22.1914 627.235 0 594.906 0ZM595.346 25.57C608.867 25.57 619.741 36.886 619.741 52.4641C619.741 68.0398 608.867 79.6503 595.346 79.6503C581.827 79.6503 570.071 68.0398 570.071 52.4641C570.071 36.886 581.679 25.57 595.346 25.57Z" fill="#FF9500"/>
<path d="M698.961 0.859375H668.394V103.874H698.961V0.859375Z" fill="#FF9500"/>
<path d="M815.204 103.877V0.859375H787.283V58.4667L743.637 0.859375H717.479V103.877H745.546V46.564L789.191 103.877H815.204Z" fill="#FF9500"/>
<path d="M211.508 147.659V121.988H202.536L196.933 135.392L191.33 121.988H182.358V147.659H189.755V133.596L194.151 145.169H199.716L204.112 133.596V147.659H211.508Z" fill="white"/>
<path d="M234.091 144.034L235.374 147.659H244.418L233.983 121.988H225.267L214.428 147.659H223.143L224.46 144.034H234.091ZM232.005 137.954H226.658L229.369 130.448L232.005 137.954Z" fill="white"/>
<path d="M263.227 134.122V140.091C261.982 140.604 260.737 140.932 259.858 140.932C256.525 140.932 254.073 138.37 254.073 134.817C254.073 131.337 256.489 128.775 259.786 128.775C261.91 128.775 264.4 129.836 266.119 131.486L270.918 125.663C268.171 123.244 263.814 121.707 259.822 121.707C251.434 121.707 245.357 127.238 245.357 134.817C245.357 142.436 251.217 148 259.271 148C262.935 148 267.659 146.609 270.516 144.706V134.122H263.227Z" fill="white"/>
<path d="M292.575 144.034L293.856 147.659H302.902L292.464 121.988H283.749L272.909 147.659H281.625L282.944 144.034H292.575ZM290.487 137.954H285.14L287.85 130.448L290.487 137.954Z" fill="white"/>
<path d="M328.042 127.299V121.988H305.19V128.508H316.726L304.752 142.35V147.659H328.299V141.141H316.066L328.042 127.299Z" fill="white"/>
<path d="M340.824 121.988H332.328V147.659H340.824V121.988Z" fill="white"/>
<path d="M370.886 147.659V121.988H363.195V135.172L353.05 121.988H345.945V147.659H353.672V134.549L363.781 147.659H370.886Z" fill="white"/>
<path d="M397.723 128.434V121.988H376.008V147.659H398.053V141.216H384.503V138.029H396.514V131.583H384.503V128.434H397.723Z" fill="white"/>
<path d="M412.851 120.203C408.388 120.203 404.931 123.848 404.931 128.17C404.931 132.492 408.365 136.09 412.804 136.09C417.266 136.09 420.747 132.445 420.747 128.123C420.747 123.778 417.29 120.203 412.851 120.203ZM412.804 134.221C409.393 134.221 406.8 131.487 406.8 128.17C406.8 124.852 409.416 122.072 412.851 122.072C416.262 122.072 418.902 124.806 418.902 128.123C418.902 131.441 416.238 134.221 412.804 134.221ZM416.168 126.745C416.168 125.086 415.047 124.151 413.061 124.151H409.837V131.628H411.683V129.525H413.154L414.276 131.628H416.402L414.813 129.174C415.678 128.731 416.168 127.889 416.168 126.745ZM411.683 128.076V125.577H413.061C413.902 125.577 414.393 126.02 414.393 126.815C414.393 127.609 413.902 128.076 413.061 128.076H411.683Z" fill="#FF9500"/>
</svg>
