<svg width="436" height="153" viewBox="0 0 436 153" fill="none" xmlns="http://www.w3.org/2000/svg">
<g clip-path="url(#clip0_560_23469)">
<path d="M271.798 17.0999H235.758V150.8H271.798V17.0999Z" fill="white"/>
<path d="M379.289 69.1999C377.075 65.0786 373.945 61.5205 370.139 58.7999C365.746 55.6094 360.814 53.2381 355.579 51.7999C349.306 50.0195 342.809 49.1506 336.289 49.2199C326.329 49.2199 318.015 50.7866 311.349 53.9199C304.682 57.0532 299.612 61.1866 296.139 66.3199C292.738 71.3228 290.72 77.1358 290.289 83.1699H323.459C323.57 81.8193 323.97 80.5082 324.631 79.3249C325.291 78.1417 326.198 77.1136 327.289 76.3099C329.792 74.697 332.734 73.9004 335.709 74.0299C338.43 73.9097 341.122 74.6402 343.409 76.1199C344.381 76.7788 345.168 77.6768 345.694 78.7275C346.219 79.7783 346.465 80.9465 346.409 82.1199V82.3799C346.431 83.2809 346.234 84.1738 345.835 84.982C345.436 85.7901 344.847 86.4895 344.119 87.0199C342.599 88.1466 340.119 89.0366 336.679 89.6899C333.239 90.3432 328.735 90.8666 323.169 91.2599C318.27 91.601 313.421 92.4523 308.699 93.7999C304.5 94.9864 300.545 96.9096 297.019 99.4799C293.654 101.981 290.961 105.275 289.179 109.07C287.206 113.467 286.249 118.252 286.379 123.07C286.379 129.737 287.772 135.22 290.559 139.52C293.33 143.822 297.334 147.189 302.049 149.18C311.277 152.755 321.399 153.322 330.969 150.8C334.516 149.813 337.824 148.112 340.689 145.8C343.716 143.305 346.204 140.219 347.999 136.73H348.789V150.8H382.479V82.1199C382.517 77.6137 381.42 73.1703 379.289 69.1999ZM346.709 115.29C346.79 118.054 345.988 120.773 344.419 123.05C342.908 125.181 340.858 126.872 338.479 127.95C336.071 129.085 333.44 129.666 330.779 129.65C328.099 129.762 325.457 128.981 323.269 127.43C322.294 126.684 321.517 125.71 321.004 124.595C320.492 123.479 320.26 122.256 320.329 121.03C320.308 119.38 320.736 117.755 321.569 116.33C322.534 114.807 323.887 113.568 325.489 112.74C327.631 111.624 329.953 110.896 332.349 110.59C333.782 110.37 335.152 110.13 336.459 109.87C337.809 109.61 339.069 109.32 340.249 109.02C341.429 108.72 342.599 108.39 343.639 108.02C344.679 107.65 345.749 107.3 346.709 106.91V115.29Z" fill="white"/>
<path d="M399.139 150.73V54.6598H435.139V150.73H399.139ZM417.139 33.7298C412.492 33.8164 407.995 32.0831 404.609 28.8998C402.953 27.4529 401.63 25.6656 400.729 23.6601C399.828 21.6547 399.371 19.4783 399.389 17.2798C399.372 15.0814 399.829 12.9053 400.73 10.8999C401.631 8.89452 402.954 7.10715 404.609 5.65982C408.043 2.55107 412.511 0.82959 417.144 0.82959C421.776 0.82959 426.244 2.55107 429.679 5.65982C431.333 7.10715 432.656 8.89452 433.557 10.8999C434.458 12.9053 434.916 15.0814 434.899 17.2798C434.916 19.4783 434.459 21.6547 433.558 23.6601C432.657 25.6656 431.334 27.4529 429.679 28.8998C426.295 32.0841 421.794 33.8085 417.149 33.6998L417.139 33.7298Z" fill="white"/>
<path d="M171.038 152.5C160.371 152.5 151.145 150.453 143.358 146.36C135.78 142.349 129.574 136.164 125.538 128.6C121.411 120.86 119.345 111.59 119.338 100.79C119.338 90.4298 121.428 81.3764 125.608 73.6298C129.64 66.0287 135.779 59.7513 143.288 55.5498C150.901 51.2364 159.901 49.0831 170.288 49.0898C177.299 48.99 184.269 50.1833 190.848 52.6098C196.783 54.8301 202.157 58.3295 206.588 62.8598C211.032 67.4858 214.441 73.0047 216.588 79.0498C219.03 85.9436 220.225 93.217 220.118 100.53V108.89H154.318V89.0398H186.948C186.963 86.3537 186.191 83.7221 184.728 81.4698C183.348 79.2577 181.382 77.4716 179.048 76.3098C176.58 75.0234 173.83 74.3738 171.048 74.4198C168.268 74.3959 165.523 75.0443 163.048 76.3098C160.685 77.4716 158.663 79.2251 157.178 81.3998C155.709 83.6796 154.916 86.3281 154.888 89.0398V110.45C154.827 113.445 155.514 116.408 156.888 119.07C158.204 121.574 160.224 123.638 162.698 125.01C165.502 126.519 168.654 127.264 171.838 127.17C174.14 127.198 176.432 126.843 178.618 126.12C180.591 125.497 182.415 124.475 183.978 123.12C185.44 121.798 186.559 120.14 187.238 118.29H220.148C219.153 124.947 216.391 131.215 212.148 136.44C207.609 141.747 201.813 145.831 195.288 148.32C188.395 151.1 180.311 152.493 171.038 152.5Z" fill="white"/>
<path d="M0.908203 150.8V17.0999H58.6182C68.5382 17.0999 77.2215 18.9065 84.6682 22.5199C91.8596 25.9047 97.8968 31.3298 102.028 38.1199C106.168 44.9065 108.235 53.0465 108.228 62.5399C108.222 72.0332 106.092 80.1199 101.838 86.7999C97.5267 93.4402 91.3128 98.626 84.0082 101.68C76.4015 105.013 67.5015 106.68 57.3082 106.68H37.1282V78.4699H49.9982C53.6933 78.5525 57.3766 78.022 60.8982 76.8999C63.7267 75.9792 66.182 74.1693 67.8982 71.7399C69.6592 69.0047 70.5259 65.7895 70.3782 62.5399C70.5225 59.2452 69.6535 55.9854 67.8882 53.1999C66.2005 50.7011 63.7424 48.8224 60.8882 47.8499C57.3968 46.5862 53.7001 45.9859 49.9882 46.0799H37.2082V150.8H0.908203ZM85.5082 100.92L112.668 150.8H73.2882L49.7682 106.67" fill="white"/>
</g>
<defs>
<clipPath id="clip0_560_23469">
<rect width="434.27" height="151.7" fill="white" transform="translate(0.908203 0.799805)"/>
</clipPath>
</defs>
</svg>
