<svg width="436" height="153" viewBox="0 0 436 153" fill="none" xmlns="http://www.w3.org/2000/svg">
<g clip-path="url(#clip0_560_23468)">
<path d="M271.798 16.9504H235.758V150.65H271.798V16.9504Z" fill="#14217E"/>
<path d="M379.289 69.0505C377.075 64.9292 373.945 61.3711 370.139 58.6505C365.746 55.46 360.814 53.0887 355.579 51.6505C349.306 49.87 342.809 49.0011 336.289 49.0705C326.329 49.0705 318.015 50.6372 311.349 53.7705C304.682 56.9038 299.612 61.0372 296.139 66.1705C292.738 71.1734 290.72 76.9864 290.289 83.0205H323.459C323.57 81.6699 323.97 80.3588 324.631 79.1755C325.291 77.9922 326.198 76.9642 327.289 76.1605C329.792 74.5476 332.734 73.751 335.709 73.8805C338.43 73.7603 341.122 74.4908 343.409 75.9705C344.381 76.6294 345.168 77.5274 345.694 78.5781C346.219 79.6289 346.465 80.7971 346.409 81.9705V82.2305C346.431 83.1315 346.234 84.0244 345.835 84.8326C345.436 85.6407 344.847 86.3401 344.119 86.8705C342.599 87.9972 340.119 88.8872 336.679 89.5405C333.239 90.1938 328.735 90.7172 323.169 91.1105C318.27 91.4516 313.421 92.3029 308.699 93.6505C304.5 94.837 300.545 96.7602 297.019 99.3305C293.654 101.831 290.961 105.126 289.179 108.92C287.206 113.318 286.249 118.103 286.379 122.921C286.379 129.587 287.772 135.07 290.559 139.37C293.33 143.673 297.334 147.039 302.049 149.031C311.277 152.606 321.399 153.173 330.969 150.65C334.516 149.664 337.824 147.962 340.689 145.65C343.716 143.155 346.204 140.069 347.999 136.58H348.789V150.65H382.479V81.9705C382.517 77.4643 381.42 73.0209 379.289 69.0505ZM346.709 115.14C346.79 117.905 345.988 120.623 344.419 122.9C342.908 125.031 340.858 126.722 338.479 127.8C336.071 128.936 333.44 129.517 330.779 129.501C328.099 129.613 325.457 128.832 323.269 127.281C322.294 126.534 321.517 125.561 321.004 124.445C320.492 123.33 320.26 122.106 320.329 120.881C320.308 119.23 320.736 117.606 321.569 116.18C322.534 114.657 323.887 113.418 325.489 112.59C327.631 111.475 329.953 110.747 332.349 110.44C333.782 110.22 335.152 109.98 336.459 109.72C337.809 109.46 339.069 109.17 340.249 108.87C341.429 108.57 342.599 108.24 343.639 107.87C344.679 107.5 345.749 107.15 346.709 106.76V115.14Z" fill="#14217E"/>
<path d="M399.139 150.58V54.5104H435.139V150.58H399.139ZM417.139 33.5804C412.492 33.667 407.995 31.9336 404.609 28.7504C402.953 27.3035 401.63 25.5162 400.729 23.5107C399.828 21.5052 399.371 19.3289 399.389 17.1304C399.372 14.932 399.829 12.7559 400.73 10.7505C401.631 8.74511 402.954 6.95774 404.609 5.5104C408.043 2.40166 412.511 0.680176 417.144 0.680176C421.776 0.680176 426.244 2.40166 429.679 5.5104C431.333 6.95774 432.656 8.74511 433.557 10.7505C434.458 12.7559 434.916 14.932 434.899 17.1304C434.916 19.3289 434.459 21.5052 433.558 23.5107C432.657 25.5162 431.334 27.3035 429.679 28.7504C426.295 31.9347 421.794 33.659 417.149 33.5504L417.139 33.5804Z" fill="#14217E"/>
<path d="M171.038 152.35C160.371 152.35 151.145 150.304 143.358 146.21C135.78 142.199 129.574 136.015 125.538 128.45C121.411 120.71 119.345 111.44 119.338 100.64C119.338 90.2803 121.428 81.227 125.608 73.4803C129.64 65.8793 135.779 59.6019 143.288 55.4003C150.901 51.087 159.901 48.9337 170.288 48.9403C177.299 48.8406 184.269 50.0339 190.848 52.4603C196.783 54.6806 202.157 58.1801 206.588 62.7103C211.032 67.3364 214.441 72.8553 216.588 78.9003C219.03 85.7942 220.225 93.0676 220.118 100.38V108.74H154.318V88.8903H186.948C186.963 86.2043 186.191 83.5727 184.728 81.3203C183.348 79.1083 181.382 77.3221 179.048 76.1603C176.58 74.874 173.83 74.2244 171.048 74.2703C168.268 74.2465 165.523 74.8949 163.048 76.1603C160.685 77.3221 158.663 79.0756 157.178 81.2503C155.709 83.5301 154.916 86.1787 154.888 88.8903V110.3C154.827 113.295 155.514 116.258 156.888 118.92C158.204 121.424 160.224 123.489 162.698 124.86C165.502 126.37 168.654 127.115 171.838 127.02C174.14 127.048 176.432 126.693 178.618 125.97C180.591 125.347 182.415 124.326 183.978 122.97C185.44 121.649 186.559 119.991 187.238 118.14H220.148C219.153 124.797 216.391 131.065 212.148 136.29C207.609 141.597 201.813 145.682 195.288 148.17C188.395 150.95 180.311 152.344 171.038 152.35Z" fill="#14217E"/>
<path d="M0.908203 150.65V16.9504H58.6182C68.5382 16.9504 77.2215 18.7571 84.6682 22.3704C91.8596 25.7553 97.8968 31.1804 102.028 37.9704C106.168 44.7571 108.235 52.8971 108.228 62.3904C108.222 71.8838 106.092 79.9704 101.838 86.6504C97.5267 93.2908 91.3128 98.4766 84.0082 101.53C76.4015 104.864 67.5015 106.53 57.3082 106.53H37.1282V78.3204H49.9982C53.6933 78.4031 57.3766 77.8726 60.8982 76.7504C63.7267 75.8298 66.182 74.0199 67.8982 71.5904C69.6592 68.8553 70.5259 65.6401 70.3782 62.3904C70.5225 59.0958 69.6535 55.836 67.8882 53.0504C66.2005 50.5517 63.7424 48.673 60.8882 47.7004C57.3968 46.4368 53.7001 45.8365 49.9882 45.9304H37.2082V150.65H0.908203ZM85.5082 100.77L112.668 150.65H73.2882L49.7682 106.52" fill="#14217E"/>
</g>
<defs>
<clipPath id="clip0_560_23468">
<rect width="434.27" height="151.7" fill="white" transform="translate(0.908203 0.650391)"/>
</clipPath>
</defs>
</svg>
