<svg xmlns="http://www.w3.org/2000/svg" xmlns:xlink="http://www.w3.org/1999/xlink" width="589" height="221" viewBox="0 0 589 221">
  <defs>
    <clipPath id="clip-path">
      <rect id="Rectangle_58923" data-name="Rectangle 58923" width="434.27" height="151.7" transform="translate(0.908 0.8)" fill="#fff"/>
    </clipPath>
  </defs>
  <g id="Group_984" data-name="Group 984" transform="translate(-12683 23003)">
    <rect id="Rectangle_58925" data-name="Rectangle 58925" width="589" height="221" rx="33" transform="translate(12683 -23003)" fill="#14217e"/>
    <g id="relai" transform="translate(12759.092 -22976.799)" clip-path="url(#clip-path)">
      <path id="Path_26203" data-name="Path 26203" d="M271.8,17.1h-36.04V150.8H271.8Z" fill="#fff"/>
      <path id="Path_26204" data-name="Path 26204" d="M379.289,69.2a30.561,30.561,0,0,0-9.15-10.4,45.114,45.114,0,0,0-14.56-7,68.006,68.006,0,0,0-19.29-2.58q-14.94,0-24.94,4.7t-15.21,12.4a34.321,34.321,0,0,0-5.85,16.85h33.17a9.492,9.492,0,0,1,3.83-6.86,14.39,14.39,0,0,1,8.42-2.28,13.111,13.111,0,0,1,7.7,2.09,6.848,6.848,0,0,1,3,6v.26a5.573,5.573,0,0,1-2.29,4.64q-2.28,1.69-7.44,2.67a120.908,120.908,0,0,1-13.51,1.57A70.59,70.59,0,0,0,308.7,93.8a36.829,36.829,0,0,0-11.68,5.68,25.4,25.4,0,0,0-7.84,9.59,32.083,32.083,0,0,0-2.8,14q0,10,4.18,16.45a25.438,25.438,0,0,0,11.49,9.66,46.942,46.942,0,0,0,28.92,1.62,27,27,0,0,0,9.72-5,28.871,28.871,0,0,0,7.31-9.07h.79V150.8h33.69V82.12A26.842,26.842,0,0,0,379.289,69.2Zm-32.58,46.09a13.006,13.006,0,0,1-2.29,7.76,14.739,14.739,0,0,1-5.94,4.9,17.808,17.808,0,0,1-7.7,1.7,12.113,12.113,0,0,1-7.51-2.22,7.525,7.525,0,0,1-2.94-6.4,9.084,9.084,0,0,1,1.24-4.7,10.167,10.167,0,0,1,3.92-3.59,20.453,20.453,0,0,1,6.86-2.15q2.15-.33,4.11-.72c1.35-.26,2.61-.55,3.79-.85s2.35-.63,3.39-1,2.11-.72,3.07-1.11Z" fill="#fff"/>
      <path id="Path_26205" data-name="Path 26205" d="M399.139,150.73V54.66h36v96.07Zm18-117a17.809,17.809,0,0,1-12.53-4.83,15.266,15.266,0,0,1-5.22-11.62,15.277,15.277,0,0,1,5.22-11.62,18.68,18.68,0,0,1,25.07,0,15.286,15.286,0,0,1,5.22,11.62,15.275,15.275,0,0,1-5.22,11.62,17.681,17.681,0,0,1-12.53,4.8Z" fill="#fff"/>
      <path id="Path_26206" data-name="Path 26206" d="M171.038,152.5q-16,0-27.68-6.14a43,43,0,0,1-17.82-17.76q-6.19-11.61-6.2-27.81,0-15.54,6.27-27.16a44.746,44.746,0,0,1,17.68-18.08q11.42-6.47,27-6.46a57.069,57.069,0,0,1,20.56,3.52,43.181,43.181,0,0,1,15.74,10.25,45.212,45.212,0,0,1,10,16.19,61.63,61.63,0,0,1,3.53,21.48v8.36h-65.8V89.04h32.63a13.756,13.756,0,0,0-2.22-7.57,14.1,14.1,0,0,0-5.68-5.16,16.711,16.711,0,0,0-8-1.89,17.248,17.248,0,0,0-8,1.89,15.262,15.262,0,0,0-5.87,5.09,14.378,14.378,0,0,0-2.29,7.64v21.41a18,18,0,0,0,2,8.62,14.515,14.515,0,0,0,5.81,5.94,18.156,18.156,0,0,0,9.14,2.16,20.79,20.79,0,0,0,6.78-1.05,15.147,15.147,0,0,0,5.36-3,12.162,12.162,0,0,0,3.26-4.83h32.91a37.61,37.61,0,0,1-8,18.15,41.777,41.777,0,0,1-16.86,11.88Q184.949,152.49,171.038,152.5Z" fill="#fff"/>
      <path id="Path_26207" data-name="Path 26207" d="M.908,150.8V17.1h57.71q14.88,0,26.05,5.42a40.518,40.518,0,0,1,17.36,15.6q6.21,10.18,6.2,24.42t-6.39,24.26a39.36,39.36,0,0,1-17.83,14.88q-11.41,5-26.7,5H37.128V78.47H50A33.442,33.442,0,0,0,60.9,76.9a13.8,13.8,0,0,0,7-5.16,15.68,15.68,0,0,0,2.48-9.2,16.13,16.13,0,0,0-2.49-9.34,13.829,13.829,0,0,0-7-5.35,29.809,29.809,0,0,0-10.9-1.77H37.208V150.8Zm84.6-49.88,27.16,49.88H73.288l-23.52-44.13" fill="#fff"/>
    </g>
  </g>
</svg>
