<?xml version="1.0" standalone="no"?>
<!DOCTYPE svg PUBLIC "-//W3C//DTD SVG 20010904//EN"
 "http://www.w3.org/TR/2001/REC-SVG-20010904/DTD/svg10.dtd">
<svg version="1.0" xmlns="http://www.w3.org/2000/svg"
 width="198.000000pt" height="198.000000pt" viewBox="0 0 198.000000 198.000000"
 preserveAspectRatio="xMidYMid meet">
<metadata>
Created by potrace 1.14, written by Peter Selinger 2001-2017
</metadata>
<g transform="translate(0.000000,198.000000) scale(0.100000,-0.100000)"
fill="#000000" stroke="none">
<path d="M0 990 l0 -990 660 0 660 0 0 330 0 330 330 0 330 0 0 660 0 660
-990 0 -990 0 0 -990z m1116 275 c192 -85 237 -341 87 -491 -115 -116 -311
-115 -428 1 -116 117 -117 313 -1 428 92 92 222 116 342 62z m-688 -202 c6 -2
12 2 12 8 0 6 7 3 16 -6 14 -13 19 -14 25 -3 7 10 9 9 9 -4 0 -11 8 -18 20
-18 17 0 20 -7 20 -50 0 -43 -3 -50 -20 -50 -12 0 -20 -7 -20 -17 0 -14 -2
-15 -9 -5 -6 11 -11 10 -25 -3 -9 -9 -16 -12 -16 -6 0 13 -22 10 -32 -4 -5 -6
-8 -5 -8 3 0 6 -7 12 -15 12 -8 0 -16 8 -16 18 -1 16 -2 16 -6 0 -6 -24 -23
-23 -23 2 0 11 -7 20 -15 20 -10 0 -15 10 -15 30 0 20 5 30 15 30 8 0 15 9 15
20 0 25 20 27 21 3 1 -17 2 -17 6 0 2 9 11 17 19 17 8 0 14 6 14 13 0 7 3 8 8
2 4 -5 13 -11 20 -12z m592 -538 c0 -8 5 -15 11 -15 6 0 17 -7 25 -15 9 -8 11
-15 5 -15 -6 0 -11 -7 -11 -15 0 -8 5 -15 10 -15 6 0 10 -11 10 -24 0 -14 -4
-28 -10 -31 -5 -3 -10 -17 -10 -31 0 -15 -6 -24 -15 -24 -8 0 -15 -7 -15 -15
0 -10 -10 -15 -30 -15 -20 0 -30 5 -30 15 0 8 -7 15 -15 15 -9 0 -15 9 -15 24
0 14 -4 28 -10 31 -5 3 -10 17 -10 31 0 13 5 24 10 24 6 0 10 7 10 15 0 8 -5
15 -11 15 -6 0 -4 7 5 15 8 8 19 15 25 15 6 0 11 7 11 15 0 10 10 15 30 15 20
0 30 -5 30 -15z"/>
</g>
</svg>
